#!OML:ASF X:\für Bonn\!DataBase\2005_08_11_Bastian_Final\c3d\Bastian.ASF
:FULLY-SPECIFIED
:DEGREES
76
root 1.62337 15.4697 -6.04209 170.257 -22.4934 -177.743
lowerback 8.09547 -8.99023 1.01311
upperback 7.12194 -13.1733 4.30088
thorax 3.84306 -7.1447 4.41182
lowerneck -4.65707 -4.94635 -1.75387
upperneck -3.67363 -6.21324 7.02737
head -0.0610904 -2.98751 2.41094
rclavicle -9.74045e-014 3.97569e-014
rhumerus 8.80531 33.7975 -72.9053
rradius 124.669
rwrist 9.19134
rhand -25.2293 9.70773
rfingers 7.12502
rthumb 1.29006 -20.2681
lclavicle -9.74045e-014 3.97569e-014
lhumerus -6.28032 -50.3215 106.386
lradius 112.927
lwrist 47.0372
lhand -16.4047 -25.927
lfingers 7.12502
lthumb 9.80968 3.82453
rfemur -42.2978 -12.21 27.6467
rtibia 58.7615
rfoot -189.81 -187.748
rtoes 5.48935
lfemur 31.8085 0.793955 -16.4401
ltibia 33.8681
lfoot -17.2019 -13.3742
ltoes -30.9585
77
root 1.55167 15.5156 -6.21289 169.841 -21.8859 -177.461
lowerback 7.72002 -8.7585 1.93151
upperback 7.23071 -12.8677 4.36493
thorax 3.9596 -6.96 3.92164
lowerneck -4.70522 -5.02823 -2.06684
upperneck -3.29061 -6.35493 6.90819
head 0.0804697 -3.05809 2.41679
rclavicle -3.53837e-014 -1.59028e-015
rhumerus 9.63661 33.971 -72.9635
rradius 124.187
rwrist 9.34443
rhand -24.609 9.74181
rfingers 7.12502
rthumb 1.88924 -20.2296
lclavicle -3.53837e-014 -1.59028e-015
lhumerus -6.63681 -50.5424 105.904
lradius 113.215
lwrist 47.2954
lhand -16.576 -25.8204
lfingers 7.12502
lthumb 9.64447 3.9388
rfemur -41.1178 -12.1927 27.8815
rtibia 58.416
rfoot -188.943 -187.38
rtoes 6.01664
lfemur 30.1368 1.52208 -15.9323
ltibia 38.447
lfoot -13.0717 -12.9073
ltoes -32.2658
78
root 1.48442 15.5682 -6.3779 169.416 -21.218 -177.239
lowerback 7.38904 -8.51325 2.83942
upperback 7.39957 -12.5525 4.33459
thorax 4.10724 -6.76681 3.34327
lowerneck -4.75944 -5.09646 -2.31808
upperneck -2.91075 -6.4743 6.8384
head 0.221183 -3.11697 2.42847
rclavicle -4.37326e-015 -2.22639e-014
rhumerus 10.3548 34.1153 -73.276
rradius 123.678
rwrist 9.54366
rhand -23.9855 9.78801
rfingers 7.12502
rthumb 2.49136 -20.1772
lclavicle -4.37326e-015 -2.22639e-014
lhumerus -6.92335 -50.7578 105.204
lradius 113.562
lwrist 47.5544
lhand -16.7498 -25.5636
lfingers 7.12502
lthumb 9.47677 4.20328
rfemur -39.8321 -12.0231 28.0428
rtibia 57.9655
rfoot -188.183 -186.988
rtoes 6.62209
lfemur 28.0889 2.3572 -15.4444
ltibia 43.4698
lfoot -7.63941 -12.2477
ltoes -31.6
79
root 1.42036 15.6753 -6.55075 168.962 -20.5386 -177.044
lowerback 7.08931 -8.25902 3.70588
upperback 7.58968 -12.2271 4.23299
thorax 4.26506 -6.56405 2.71756
lowerneck -4.62788 -5.15794 -2.49244
upperneck -2.60623 -6.58181 6.83602
head 0.306267 -3.17424 2.455
rclavicle -2.00773e-014 -1.59028e-014
rhumerus 10.7943 34.2058 -73.9043
rradius 123.151
rwrist 9.65193
rhand -23.356 9.90986
rfingers 7.12502
rthumb 3.09929 -20.0474
lclavicle -2.00773e-014 -1.59028e-014
lhumerus -7.33934 -50.9332 104.516
lradius 113.932
lwrist 47.8322
lhand -16.8293 -25.2249
lfingers 7.12502
lthumb 9.40008 4.54552
rfemur -38.1773 -11.8259 28.1671
rtibia 57.2872
rfoot -187.674 -186.629
rtoes 7.31515
lfemur 25.7632 3.22776 -14.9075
ltibia 48.736
lfoot -1.23635 -11.3373
ltoes -32.1606
80
root 1.36531 15.7271 -6.71108 168.471 -19.8783 -176.929
lowerback 6.85743 -7.99061 4.3923
upperback 7.81677 -11.9004 4.12157
thorax 4.47158 -6.36944 2.18093
lowerneck -4.44102 -5.22077 -2.66036
upperneck -2.32617 -6.69126 6.79825
head 0.37286 -3.23459 2.4706
rclavicle 3.06128e-014 -5.24792e-014
rhumerus 11.0161 34.2499 -74.6489
rradius 122.634
rwrist 9.65426
rhand -22.8087 10.0619
rfingers 7.12502
rthumb 3.6278 -19.8869
lclavicle 3.06128e-014 -5.24792e-014
lhumerus -7.64901 -51.038 103.738
lradius 114.372
lwrist 48.2079
lhand -16.8807 -24.8192
lfingers 7.12502
lthumb 9.3505 4.9534
rfemur -36.7358 -11.5415 28.2298
rtibia 56.7466
rfoot -187.2 -186.357
rtoes 8.05709
lfemur 23.1934 4.04667 -14.443
ltibia 54.485
lfoot 5.57474 -10.268
ltoes -33.9144
81
root 1.31568 15.7761 -6.85487 167.954 -19.2336 -176.843
lowerback 6.83512 -7.71359 4.99499
upperback 8.03795 -11.5528 3.99498
thorax 4.5801 -6.17035 1.70665
lowerneck -4.23658 -5.28816 -2.75337
upperneck -2.04381 -6.80866 6.75392
head 0.434532 -3.29923 2.47098
rclavicle 1.64991e-014 -1.90833e-014
rhumerus 11.0805 34.2194 -75.5304
rradius 122.138
rwrist 9.52698
rhand -22.3186 10.0995
rfingers 7.12502
rthumb 4.10108 -19.8407
lclavicle 1.64991e-014 -1.90833e-014
lhumerus -7.78088 -51.0994 102.84
lradius 114.573
lwrist 48.5727
lhand -16.8918 -24.5588
lfingers 7.12502
lthumb 9.33972 5.21426
rfemur -35.2839 -11.2185 28.2607
rtibia 56.1579
rfoot -186.832 -186.106
rtoes 8.67069
lfemur 20.4235 4.84838 -13.9849
ltibia 60.5021
lfoot 11.9833 -9.09596
ltoes -35.2643
82
root 1.27232 15.8296 -6.98924 167.302 -18.6672 -176.775
lowerback 7.0894 -7.44329 5.45043
upperback 8.26566 -11.2051 3.86856
thorax 4.58025 -5.98573 1.35001
lowerneck -3.90977 -5.3641 -2.83597
upperneck -1.82899 -6.93505 6.72285
head 0.454603 -3.37111 2.47805
rclavicle 4.81059e-014 -3.81667e-014
rhumerus 11.0156 34.172 -76.4418
rradius 121.684
rwrist 9.23928
rhand -21.9974 9.93004
rfingers 7.12502
rthumb 4.41129 -20.004
lclavicle 4.81059e-014 -3.81667e-014
lhumerus -7.80303 -51.0742 101.943
lradius 114.855
lwrist 48.9607
lhand -16.9078 -24.2069
lfingers 7.12502
lthumb 9.32427 5.56685
rfemur -33.6904 -10.9244 28.2403
rtibia 55.6263
rfoot -186.704 -185.852
rtoes 9.05546
lfemur 17.3213 5.6827 -13.4925
ltibia 66.8757
lfoot 17.2609 -8.41693
ltoes -38.5771
